<svg width="220" height="76" viewBox="0 0 220 76" fill="none" xmlns="http://www.w3.org/2000/svg">
<path d="M85.3638 49.1776C91.539 49.1776 95.8896 45.8567 95.8896 40.4212C95.8896 34.4869 91.0003 32.9507 86.4069 31.5074C82.0145 30.1798 80.8936 29.2316 80.8936 27.4412C80.8936 25.7817 82.3046 24.5357 84.7076 24.5357C87.651 24.5357 89.2252 26.0719 90.2607 28.2719L95.0684 25.4897C93.1207 21.414 89.466 18.9655 84.7 18.9655C79.7272 18.9655 75.1679 22.1195 75.1679 27.5967C75.1679 33.1176 79.4788 34.9933 83.9129 36.2716C88.2238 37.5157 90.1715 38.3464 90.1715 40.5047C90.1715 42.1224 88.9691 43.5752 85.5288 43.5752C81.9253 43.5752 79.8922 41.8323 78.8567 39.1335L73.9655 41.9973C75.5397 46.3138 79.4371 49.1776 85.3638 49.1776Z" fill="white"/>
<path d="M109.361 27.2648C106.326 27.2648 104.14 28.3856 102.647 30.2993V27.847H97.293V56.8965H102.639V46.1487C104.132 48.0567 106.328 49.1832 109.353 49.1832C114.906 49.1832 119.466 44.4096 119.466 38.2268C119.466 32.0441 114.914 27.2648 109.361 27.2648ZM108.367 44.0739C105.092 44.0739 102.647 41.707 102.647 38.2211C102.647 34.7353 105.092 32.3703 108.367 32.3703C111.682 32.3703 114.127 34.7353 114.127 38.2211C114.127 41.707 111.682 44.0739 108.367 44.0739Z" fill="white"/>
<path d="M132.694 27.2648C129.917 27.2648 127.763 28.3022 126.519 30.1703V19.5497H121.172V48.5972H126.519V37.3924C126.519 33.789 128.467 32.2452 131.071 32.2452C133.474 32.2452 135.173 33.6979 135.173 36.52V48.5972H140.534V35.8562C140.534 30.3448 137.086 27.2648 132.694 27.2648Z" fill="white"/>
<path d="M147.538 40.4211H163.162C163.297 39.6955 163.367 38.9592 163.371 38.2211C163.371 32.1218 159.018 27.2648 152.885 27.2648C146.378 27.2648 141.943 32.0384 141.943 38.2211C141.943 44.4039 146.336 49.1775 153.298 49.1775C157.281 49.1775 160.385 47.5598 162.333 44.7377L158.024 42.2475C157.112 43.4499 155.454 44.3223 153.382 44.3223C150.563 44.3223 148.284 43.1598 147.538 40.4211ZM147.455 36.2715C148.077 33.6163 150.025 32.0801 152.885 32.0801C155.123 32.0801 157.36 33.2825 158.024 36.2715H147.455Z" fill="white"/>
<path d="M170.377 31.4164V27.8471H165.03V48.5972H170.377V38.6783C170.377 34.3162 173.9 33.0759 176.677 33.4078V27.4317C174.065 27.4317 171.448 28.5943 170.377 31.4164Z" fill="white"/>
<path d="M187.973 49.1775C194.065 49.1775 198.956 44.4039 198.956 38.2211C198.956 32.0384 194.065 27.2648 187.973 27.2648C181.881 27.2648 177.032 32.0384 177.032 38.2211C177.032 44.4039 181.879 49.1775 187.973 49.1775ZM187.973 43.9487C184.823 43.9487 182.378 41.5837 182.378 38.2211C182.378 34.8586 184.823 32.4936 187.973 32.4936C191.163 32.4936 193.61 34.8605 193.61 38.2211C193.61 41.5818 191.173 43.9487 187.973 43.9487Z" fill="white"/>
<path d="M212.167 27.2648C209.391 27.2648 207.236 28.3022 205.99 30.1703V27.847H200.644V48.5972H205.99V37.3924C205.99 33.7889 207.94 32.2451 210.542 32.2451C212.947 32.2451 214.646 33.6979 214.646 36.5199V48.5972H220V35.8561C220 30.3448 216.56 27.2648 212.167 27.2648Z" fill="white"/>
<path d="M48.4303 1.09431V15.6977C48.43 16.0765 48.3321 16.4487 48.1461 16.7786C47.9601 17.1085 47.6922 17.3848 47.3682 17.581L47.2772 17.6341L43.8634 19.6008L23.9914 31.0295L21.5789 32.4158C21.5382 32.4338 21.4994 32.4561 21.4633 32.4822C21.3131 32.583 21.19 32.7192 21.1048 32.8787C21.0197 33.0383 20.9752 33.2164 20.9752 33.3973C20.9752 33.5782 21.0197 33.7563 21.1048 33.9159C21.19 34.0754 21.3131 34.2116 21.4633 34.3124L21.5543 34.3655L24.2758 35.9434L33.5689 41.2917L33.7339 41.3884C33.8795 41.4891 33.9984 41.6236 34.0806 41.7803C34.1627 41.937 34.2056 42.1114 34.2056 42.2883C34.2056 42.4653 34.1627 42.6396 34.0806 42.7963C33.9984 42.9531 33.8795 43.0876 33.7339 43.1882L33.5727 43.2793L16.5929 53.0617L16.4981 53.1167C16.1767 53.293 15.8159 53.385 15.4493 53.3841C15.1211 53.3829 14.7973 53.3091 14.501 53.1679L14.4062 53.1186L14.2621 53.0332L4.41517 47.372L1.155 45.4963C1.12466 45.4812 1.09431 45.4622 1.06207 45.4432C0.747191 45.2511 0.486181 44.9823 0.30345 44.6619C0.104993 44.3299 0.000131793 43.9505 1.9435e-06 43.5638V28.325C-0.000495669 27.9515 0.0945709 27.5842 0.276156 27.2579C0.457742 26.9315 0.719806 26.6571 1.03741 26.4607C1.0447 26.4537 1.05301 26.448 1.06207 26.4436C1.09792 26.4208 1.13531 26.4005 1.17397 26.3829L1.18914 26.3715L4.41327 24.5167L15.2938 18.2581L28.4065 10.7155L46.712 0.189657C46.7408 0.16945 46.7713 0.151687 46.8031 0.136553C46.9637 0.0469405 47.1445 -6.90829e-05 47.3284 1.6351e-06C47.4731 -0.000247638 47.6165 0.028007 47.7502 0.0831522C47.884 0.138297 48.0056 0.219253 48.1081 0.321398C48.2106 0.423542 48.292 0.544875 48.3476 0.678468C48.4032 0.812061 48.432 0.955298 48.4322 1.1L48.4303 1.09431Z" fill="#01ABFF"/>
<path d="M63.7242 32.2983V47.537C63.7238 47.9152 63.6258 48.2869 63.4398 48.6161C63.2537 48.9454 62.9859 49.2211 62.6621 49.4165L62.5692 49.4696L59.309 51.3472L55.1897 53.7179L48.4342 57.6039L35.3177 65.1465L17.016 75.6724C16.9867 75.6919 16.9563 75.7096 16.9249 75.7255C16.7636 75.8146 16.582 75.861 16.3977 75.8601C16.253 75.8604 16.1096 75.8321 15.9759 75.777C15.8421 75.7218 15.7205 75.6409 15.618 75.5387C15.5155 75.4366 15.4341 75.3152 15.3785 75.1817C15.3229 75.0481 15.2941 74.9048 15.2939 74.7601V60.1567C15.2935 59.7784 15.3912 59.4064 15.5773 59.077C15.7634 58.7476 16.0317 58.4721 16.356 58.2772C16.3996 58.2487 16.447 58.2241 16.4906 58.2013L19.8665 56.2574L39.7328 44.8288L42.113 43.4594L42.2666 43.3722L42.2818 43.3627C42.4275 43.2615 42.5465 43.1265 42.6287 42.9693C42.711 42.8121 42.7539 42.6374 42.754 42.46C42.7525 42.2796 42.7074 42.1023 42.6225 41.9431C42.5376 41.7839 42.4155 41.6476 42.2666 41.5458C42.2315 41.5224 42.1947 41.5015 42.1566 41.4832L39.4483 39.9167L30.1553 34.5665L29.977 34.4622C29.8349 34.3612 29.719 34.2277 29.6391 34.0728C29.5591 33.9179 29.5174 33.7461 29.5174 33.5718C29.5174 33.3975 29.5591 33.2257 29.6391 33.0708C29.719 32.9159 29.8349 32.7823 29.977 32.6814L30.1666 32.5751C30.1755 32.569 30.185 32.5639 30.1951 32.56L47.1351 22.8117L47.2678 22.7358C47.5836 22.5708 47.9347 22.4846 48.291 22.4846C48.6473 22.4846 48.9984 22.5708 49.3142 22.7358L49.4583 22.8193L59.3318 28.4976L62.5919 30.3751C62.6235 30.3907 62.6539 30.4085 62.683 30.4283C62.998 30.6193 63.2592 30.8876 63.4416 31.2077C63.6383 31.5408 63.7412 31.9209 63.7394 32.3077L63.7242 32.2983Z" fill="#0057FF"/>
</svg>
