<svg width="40" height="40" viewBox="0 0 40 40" fill="none" xmlns="http://www.w3.org/2000/svg">
<rect width="40" height="40" rx="20" fill="#23262F"/>
<path d="M26.9312 13.2637C25.6566 12.6787 24.2893 12.2478 22.8602 12.001C22.8343 11.9964 22.8084 12.0082 22.7947 12.0319C22.6188 12.3446 22.4243 12.7523 22.2879 13.0732C20.7506 12.8432 19.2211 12.8432 17.7156 13.0732C17.5792 12.7455 17.3774 12.3446 17.2006 12.0319C17.1869 12.0087 17.161 11.9969 17.1351 12.001C15.7064 12.2469 14.3396 12.6778 13.0641 13.2637C13.0532 13.2683 13.0437 13.2764 13.0373 13.2869C10.4445 17.1606 9.73408 20.9393 10.0827 24.6707C10.0841 24.6889 10.0945 24.7066 10.1086 24.7175C11.8191 25.9739 13.4764 26.7367 15.1028 27.2421C15.1287 27.2498 15.1564 27.2408 15.1728 27.2189C15.5574 26.6935 15.9005 26.1398 16.1946 25.5571C16.2119 25.523 16.1955 25.4825 16.1601 25.4689C15.616 25.2625 15.0983 25.0112 14.6001 24.7253C14.5605 24.7021 14.5573 24.6457 14.5937 24.6189C14.6987 24.5403 14.8032 24.4584 14.9037 24.3762C14.9219 24.3612 14.9469 24.358 14.9683 24.3675C18.2415 25.8621 21.7852 25.8621 25.0198 24.3675C25.0411 24.3571 25.0661 24.3603 25.0852 24.3753C25.1852 24.458 25.2902 24.5403 25.3957 24.6189C25.4321 24.6457 25.4298 24.7021 25.3902 24.7253C24.8921 25.0166 24.3739 25.2625 23.8293 25.468C23.7939 25.4816 23.7779 25.5225 23.7952 25.5571C24.0957 26.1389 24.4384 26.6926 24.8161 27.218C24.8321 27.2403 24.8602 27.2498 24.8861 27.2417C26.5203 26.7362 28.1776 25.9735 29.888 24.7171C29.903 24.7062 29.9126 24.6893 29.914 24.6712C30.3308 20.357 29.2153 16.6097 26.9571 13.2873C26.9516 13.2764 26.9421 13.2683 26.9312 13.2637ZM16.6833 22.3984C15.6978 22.3984 14.886 21.4938 14.886 20.3825C14.886 19.2711 15.6824 18.3665 16.6833 18.3665C17.6924 18.3665 18.4965 19.2793 18.4806 20.3825C18.481 21.4934 17.6847 22.3984 16.6833 22.3984ZM23.3293 22.3984C22.3438 22.3984 21.532 21.4938 21.532 20.3825C21.532 19.2711 22.3284 18.3665 23.3293 18.3665C24.3384 18.3665 25.1425 19.2793 25.1266 20.3825C25.1266 21.4934 24.3384 22.3984 23.3293 22.3984Z" fill="#536DFE"/>
</svg>
