<svg width="40" height="40" viewBox="0 0 40 40" fill="none" xmlns="http://www.w3.org/2000/svg">
<rect width="40" height="40" rx="20" fill="#23262F"/>
<path fill-rule="evenodd" clip-rule="evenodd" d="M13.3334 12.5C11.9527 12.5 10.8334 13.6193 10.8334 15V25C10.8334 26.3807 11.9527 27.5 13.3334 27.5H26.6668C28.0475 27.5 29.1668 26.3807 29.1668 25V15C29.1668 13.6193 28.0475 12.5 26.6668 12.5H13.3334ZM15.5336 16.0265C15.18 15.7319 14.6546 15.7796 14.3599 16.1332C14.0653 16.4868 14.1131 17.0122 14.4666 17.3069L18.3997 20.5844C19.3268 21.357 20.6735 21.357 21.6006 20.5844L25.5336 17.3069C25.8872 17.0122 25.9349 16.4868 25.6403 16.1332C25.3457 15.7796 24.8202 15.7319 24.4666 16.0265L20.5336 19.304C20.2246 19.5616 19.7757 19.5616 19.4666 19.304L15.5336 16.0265Z" fill="#FCFCFD"/>
</svg>
