<svg width="40" height="40" viewBox="0 0 40 40" fill="none" xmlns="http://www.w3.org/2000/svg">
<rect width="40" height="40" rx="20" fill="#23262F"/>
<g clip-path="url(#clip0_339_6827)">
<path d="M20.0001 8C13.3735 8 8 13.3725 8 20.0001C8 25.3021 11.4384 29.8002 16.2064 31.387C16.8061 31.498 17.0263 31.1266 17.0263 30.8097C17.0263 30.5235 17.0152 29.5782 17.01 28.5755C13.6716 29.3014 12.9671 27.1597 12.9671 27.1597C12.4212 25.7726 11.6347 25.4038 11.6347 25.4038C10.546 24.659 11.7168 24.6743 11.7168 24.6743C12.9218 24.759 13.5563 25.9109 13.5563 25.9109C14.6266 27.7455 16.3636 27.2151 17.0484 26.9085C17.1561 26.1329 17.4671 25.6035 17.8102 25.3038C15.1449 25.0004 12.343 23.9715 12.343 19.3733C12.343 18.0632 12.8117 16.9927 13.5794 16.1523C13.4548 15.8501 13.044 14.6296 13.6956 12.9767C13.6956 12.9767 14.7033 12.6541 16.9965 14.2067C17.9537 13.9408 18.9803 13.8075 20.0001 13.8029C21.0199 13.8075 22.0473 13.9408 23.0063 14.2067C25.2967 12.6541 26.303 12.9767 26.303 12.9767C26.9562 14.6296 26.5452 15.8501 26.4206 16.1523C27.1901 16.9927 27.6557 18.0632 27.6557 19.3733C27.6557 23.9824 24.8484 24.9972 22.1762 25.2943C22.6067 25.6667 22.9902 26.397 22.9902 27.5166C22.9902 29.1222 22.9763 30.4144 22.9763 30.8097C22.9763 31.129 23.1923 31.5032 23.8006 31.3854C28.566 29.7968 32 25.3003 32 20.0001C32 13.3725 26.6273 8 20.0001 8ZM12.4944 25.0944C12.468 25.154 12.3742 25.1719 12.2888 25.131C12.2017 25.0918 12.1528 25.0105 12.1811 24.9507C12.2069 24.8893 12.3009 24.8722 12.3877 24.9134C12.475 24.9525 12.5246 25.0346 12.4944 25.0944ZM13.0847 25.6211C13.0275 25.6741 12.9156 25.6495 12.8397 25.5656C12.7612 25.482 12.7465 25.3701 12.8045 25.3163C12.8635 25.2632 12.972 25.288 13.0507 25.3717C13.1292 25.4564 13.1445 25.5674 13.0847 25.6211ZM13.4896 26.295C13.4161 26.346 13.2959 26.2981 13.2216 26.1914C13.1481 26.0847 13.1481 25.9568 13.2232 25.9055C13.2977 25.8542 13.4161 25.9003 13.4914 26.0062C13.5648 26.1147 13.5648 26.2427 13.4896 26.295ZM14.1745 27.0754C14.1087 27.148 13.9686 27.1285 13.8661 27.0295C13.7612 26.9327 13.732 26.7954 13.7979 26.7229C13.8645 26.6502 14.0054 26.6706 14.1087 26.7688C14.2129 26.8654 14.2446 27.0037 14.1745 27.0754ZM15.0596 27.3389C15.0306 27.4329 14.8957 27.4756 14.7597 27.4357C14.624 27.3945 14.5352 27.2844 14.5626 27.1895C14.5908 27.0949 14.7264 27.0504 14.8633 27.0931C14.9988 27.134 15.0878 27.2433 15.0596 27.3389ZM16.0669 27.4507C16.0703 27.5496 15.955 27.6317 15.8123 27.6335C15.6689 27.6367 15.5528 27.5566 15.5512 27.4592C15.5512 27.3592 15.6639 27.278 15.8074 27.2756C15.9501 27.2728 16.0669 27.3523 16.0669 27.4507ZM17.0565 27.4127C17.0735 27.5093 16.9744 27.6085 16.8327 27.6349C16.6934 27.6603 16.5644 27.6007 16.5467 27.5049C16.5295 27.406 16.6304 27.3068 16.7695 27.2812C16.9114 27.2565 17.0384 27.3146 17.0565 27.4127Z" fill="#FCFCFD"/>
</g>
<defs>
<clipPath id="clip0_339_6827">
<rect width="24" height="23.4375" fill="white" transform="translate(8 8)"/>
</clipPath>
</defs>
</svg>
