<svg width="40" height="40" viewBox="0 0 40 40" fill="none" xmlns="http://www.w3.org/2000/svg">
<rect width="40" height="40" rx="20" fill="#23262F"/>
<path d="M25.5623 29.9894L14.4571 30C12.0139 30.0022 10.0133 28.0055 10.0106 25.5623L10 14.4571C9.99778 12.0139 11.9945 10.0133 14.4377 10.0106L25.5429 10C27.9861 9.99778 29.9867 11.9945 29.9894 14.4377L30 25.5429C30.0028 27.9866 28.0055 29.9872 25.5623 29.9894Z" fill="url(#paint0_radial_504_93)"/>
<path d="M25.5623 29.9894L14.4571 30C12.0139 30.0022 10.0133 28.0055 10.0106 25.5623L10 14.4571C9.99778 12.0139 11.9945 10.0133 14.4377 10.0106L25.5429 10C27.9861 9.99778 29.9867 11.9945 29.9894 14.4377L30 25.5429C30.0028 27.9866 28.0055 29.9872 25.5623 29.9894Z" fill="url(#paint1_radial_504_93)"/>
<path d="M20.0001 23.8871C17.8574 23.8871 16.1133 22.1436 16.1133 20.0003C16.1133 17.857 17.8574 16.1134 20.0001 16.1134C22.1429 16.1134 23.887 17.857 23.887 20.0003C23.887 22.1436 22.1429 23.8871 20.0001 23.8871ZM20.0001 17.224C18.4693 17.224 17.2238 18.4694 17.2238 20.0003C17.2238 21.5311 18.4693 22.7766 20.0001 22.7766C21.531 22.7766 22.7765 21.5311 22.7765 20.0003C22.7765 18.4694 21.531 17.224 20.0001 17.224Z" fill="white"/>
<path d="M24.1646 16.6687C24.6246 16.6687 24.9975 16.2958 24.9975 15.8358C24.9975 15.3758 24.6246 15.0029 24.1646 15.0029C23.7046 15.0029 23.3317 15.3758 23.3317 15.8358C23.3317 16.2958 23.7046 16.6687 24.1646 16.6687Z" fill="white"/>
<path d="M23.3317 27.2187H16.6686C14.5258 27.2187 12.7817 25.4752 12.7817 23.3318V16.6687C12.7817 14.5254 14.5258 12.7819 16.6686 12.7819H23.3317C25.4745 12.7819 27.2186 14.5254 27.2186 16.6687V23.3318C27.2186 25.4752 25.4745 27.2187 23.3317 27.2187ZM16.6686 13.8924C15.1377 13.8924 13.8923 15.1378 13.8923 16.6687V23.3318C13.8923 24.8627 15.1377 26.1082 16.6686 26.1082H23.3317C24.8626 26.1082 26.108 24.8627 26.108 23.3318V16.6687C26.108 15.1378 24.8626 13.8924 23.3317 13.8924H16.6686Z" fill="white"/>
<defs>
<radialGradient id="paint0_radial_504_93" cx="0" cy="0" r="1" gradientUnits="userSpaceOnUse" gradientTransform="translate(17.435 30.0144) scale(24.9307)">
<stop stop-color="#FFDD55"/>
<stop offset="0.328" stop-color="#FF543F"/>
<stop offset="0.348" stop-color="#FC5245"/>
<stop offset="0.504" stop-color="#E64771"/>
<stop offset="0.643" stop-color="#D53E91"/>
<stop offset="0.761" stop-color="#CC39A4"/>
<stop offset="0.841" stop-color="#C837AB"/>
</radialGradient>
<radialGradient id="paint1_radial_504_93" cx="0" cy="0" r="1" gradientUnits="userSpaceOnUse" gradientTransform="translate(13.2183 9.7503) scale(16.554 11.03)">
<stop stop-color="#4168C9"/>
<stop offset="0.999" stop-color="#4168C9" stop-opacity="0"/>
</radialGradient>
</defs>
</svg>
