<svg width="40" height="40" viewBox="0 0 40 40" fill="none" xmlns="http://www.w3.org/2000/svg">
<rect width="40" height="40" rx="20" fill="#23262F"/>
<path d="M30 27.2222C30 28.7567 28.7567 30 27.2222 30H12.7778C11.2439 30 10 28.7567 10 27.2222V12.7778C10 11.2433 11.2439 10 12.7778 10H27.2222C28.7567 10 30 11.2433 30 12.7778V27.2222Z" fill="#0288D1"/>
<path d="M13.3333 17.2222H16.1111V26.6667H13.3333V17.2222ZM14.7139 16.1111H14.6983C13.8695 16.1111 13.3333 15.4933 13.3333 14.7217C13.3333 13.9333 13.8861 13.3333 14.73 13.3333C15.575 13.3333 16.0956 13.9333 16.1111 14.7217C16.1111 15.4928 15.575 16.1111 14.7139 16.1111ZM26.6667 26.6667H23.8889V21.6117C23.8889 20.3906 23.2083 19.5572 22.1156 19.5572C21.2817 19.5572 20.8306 20.1194 20.6117 20.6628C20.5317 20.8572 20.5556 21.395 20.5556 21.6667V26.6667H17.7778V17.2222H20.5556V18.6756C20.9561 18.0556 21.5833 17.2222 23.1878 17.2222C25.1756 17.2222 26.6661 18.4722 26.6661 21.2633L26.6667 26.6667Z" fill="#FCFCFD"/>
</svg>
