<svg width="40" height="40" viewBox="0 0 40 40" fill="none" xmlns="http://www.w3.org/2000/svg">
<rect width="40" height="40" rx="20" fill="#23262F"/>
<path d="M29.5238 10H10.4762C10.2133 10 10 10.2133 10 10.4762V29.5238C10 29.7867 10.2133 30 10.4762 30H29.5238C29.7867 30 30 29.7867 30 29.5238V10.4762C30 10.2133 29.7867 10 29.5238 10ZM27.1429 14.5238L26.2757 15.57C26.221 15.6243 26.1905 15.6976 26.1905 15.7738V23.6905C26.1905 23.7667 26.221 23.84 26.2757 23.8943L27.1429 25.0219V25.2381H22.381V25.0219L23.7243 23.8943C23.779 23.84 23.8095 23.7667 23.8095 23.6905V16.609L19.9276 25.2381H19.1924L15.2381 16.8452V23.0871C15.2381 23.1919 15.2743 23.2933 15.3405 23.3752L16.6667 25.0219V25.2381H12.8571V25.0219L14.1824 23.3848C14.249 23.3029 14.2857 23.2005 14.2857 23.0952V15.899C14.2857 15.8314 14.2619 15.7662 14.2181 15.7143L13.3333 14.5238V14.2857H16.7129L20.3433 21.9919L23.8105 14.2857H27.1429V14.5238Z" fill="#FCFCFD"/>
</svg>
