<svg width="40" height="40" viewBox="0 0 40 40" fill="none" xmlns="http://www.w3.org/2000/svg">
<rect width="40" height="40" rx="20" fill="#23262F"/>
<path d="M20 9C19.5987 9 19.1973 9.10311 18.8393 9.30936L11.1607 13.7433C10.4446 14.1576 10 14.9272 10 15.754V24.6201C10 25.4469 10.4446 26.2165 11.1607 26.6308L18.8393 31.0647C19.1964 31.2719 19.5982 31.3755 20 31.3755C20.4018 31.3755 20.8036 31.2719 21.1607 31.0647L28.8393 26.6308C29.5554 26.2183 30 25.4486 30 24.6219V15.754C30 14.9272 29.5554 14.1576 28.8393 13.7433L21.1607 9.30936C20.8027 9.10311 20.4013 9 20 9ZM20 10.0704C20.2161 10.0704 20.4321 10.1262 20.625 10.2378L28.3036 14.6717C28.6893 14.8949 28.9286 15.3093 28.9286 15.754V24.6201C28.9286 25.0665 28.6893 25.4809 28.3036 25.7041L20.625 30.138C20.2393 30.3613 19.7607 30.3613 19.375 30.138L11.6964 25.7041C11.3107 25.4809 11.0714 25.0665 11.0714 24.6219V15.754C11.0714 15.3093 11.3107 14.8932 11.6964 14.6717L19.375 10.2378C19.5679 10.1262 19.7839 10.0704 20 10.0704ZM20 11.6102C19.9076 11.6102 19.8152 11.6342 19.7321 11.6824C19.5661 11.7788 19.4643 11.9559 19.4643 12.147V28.2306C19.4643 28.527 19.7036 28.7663 20 28.7663C20.2964 28.7663 20.5357 28.527 20.5357 28.2306V20.7236H22.6786C22.975 20.7236 23.2143 20.4843 23.2143 20.1879C23.2143 19.8915 22.975 19.6522 22.6786 19.6522H20.5357V13.0737L25.007 15.6556C25.0034 15.6788 25 15.7004 25 15.7236V24.6522C25 24.9486 25.2393 25.1879 25.5357 25.1879C25.8321 25.1879 26.0714 24.9486 26.0714 24.6522V16.2702L27.0536 16.838C27.3107 16.9862 27.6374 16.8987 27.7856 16.6416C27.9339 16.3845 27.8446 16.0574 27.5893 15.9092L20.2679 11.6824C20.1848 11.6342 20.0924 11.6102 20 11.6102ZM16.9643 14.2951C16.6679 14.2951 16.4286 14.5343 16.4286 14.8308V22.9969L13.5268 16.4003C13.425 16.1681 13.1751 16.0398 12.9269 16.0916C12.6769 16.1452 12.5 16.3629 12.5 16.6165V23.7593C12.5 24.0558 12.7393 24.2951 13.0357 24.2951C13.3321 24.2951 13.5714 24.0558 13.5714 23.7593V19.1646L16.4732 25.7613C16.5607 25.9577 16.7554 26.0808 16.9643 26.0808C17 26.0808 17.0373 26.0771 17.0748 26.07C17.3231 26.0164 17.5 25.7986 17.5 25.5451V14.8308C17.5 14.5343 17.2607 14.2951 16.9643 14.2951Z" fill="#FCFCFD"/>
</svg>
