<svg width="40" height="40" viewBox="0 0 40 40" fill="none" xmlns="http://www.w3.org/2000/svg">
<rect width="40" height="40" rx="20" fill="#23262F"/>
<g clip-path="url(#clip0_313_44)">
<path d="M25.2002 8.34365V12.927C25.2001 13.0459 25.1694 13.1627 25.1109 13.2662C25.0524 13.3697 24.9683 13.4564 24.8665 13.5179L24.8379 13.5347L23.7653 14.1508L17.5298 17.7385L16.7728 18.1738C16.7728 18.1738 16.7711 18.1738 16.7707 18.1758C16.7579 18.181 16.7459 18.1877 16.7347 18.1957C16.6876 18.2273 16.649 18.27 16.6224 18.32C16.5957 18.3701 16.5817 18.4259 16.5817 18.4827C16.5817 18.5394 16.5957 18.5952 16.6224 18.6453C16.649 18.6953 16.6876 18.7381 16.7347 18.7697C16.7439 18.7759 16.7534 18.7816 16.7633 18.7865L17.6209 19.2798L20.5391 20.9586C20.5399 20.9586 20.5406 20.959 20.5411 20.9596L20.5929 20.9899C20.6386 21.0215 20.676 21.0637 20.7019 21.1129C20.7277 21.1621 20.7412 21.2169 20.7412 21.2725C20.7412 21.328 20.7277 21.3828 20.7019 21.432C20.676 21.4812 20.6386 21.5234 20.5929 21.555L20.5423 21.5836L15.2078 24.6538L15.1782 24.6707C15.0772 24.726 14.9638 24.7548 14.8486 24.7546C14.7448 24.7544 14.6424 24.7311 14.5486 24.6865L14.5191 24.6709L14.4736 24.6445L11.3855 22.8681L10.3623 22.279C10.3524 22.274 10.3428 22.2684 10.3335 22.2623C10.2341 22.2025 10.1516 22.1182 10.0939 22.0175C10.032 21.9131 9.99957 21.7938 10 21.6725V16.8889C9.99988 16.7718 10.0297 16.6565 10.0867 16.5541C10.1436 16.4518 10.2258 16.3657 10.3254 16.304C10.3278 16.3018 10.3306 16.2999 10.3335 16.2984C10.3446 16.291 10.3562 16.2844 10.3683 16.2786C10.37 16.2777 10.3717 16.2767 10.3732 16.2754L11.3851 15.6929L14.7996 13.7286L18.9157 11.3629L24.6608 8.05952C24.67 8.05333 24.6796 8.04776 24.6895 8.04286C24.7399 8.0147 24.7967 7.99994 24.8544 8C24.9461 7.99989 25.034 8.03618 25.0989 8.10087C25.1638 8.16557 25.2004 8.25339 25.2006 8.34504L25.2002 8.34365Z" fill="#01ABFF"/>
<path d="M30.0002 18.1367V22.9195C30.0002 23.0382 29.9695 23.1549 29.9111 23.2583C29.8526 23.3617 29.7684 23.4482 29.6667 23.5094C29.657 23.5157 29.6468 23.5211 29.6379 23.5262L28.6147 24.1153L27.3203 24.8598L25.2004 26.079L21.0849 28.4467L15.3407 31.7501C15.3315 31.7562 15.322 31.7618 15.3121 31.7667C15.2614 31.7947 15.2043 31.8092 15.1464 31.809C15.0547 31.8091 14.9667 31.7728 14.9018 31.7081C14.8368 31.6433 14.8002 31.5554 14.8 31.4637V26.8804C14.8 26.7617 14.8307 26.6449 14.8891 26.5416C14.9476 26.4382 15.0318 26.3517 15.1335 26.2905C15.1472 26.2818 15.1619 26.2737 15.176 26.2665L16.2351 25.6564L22.4704 22.0697L23.2177 21.6401C23.2182 21.6403 23.2189 21.6403 23.2194 21.6401L23.2673 21.6129C23.2689 21.6118 23.2706 21.6107 23.2724 21.6098C23.3181 21.578 23.3553 21.5356 23.3811 21.4863C23.4068 21.437 23.4202 21.3822 23.4202 21.3266C23.4199 21.27 23.4058 21.2143 23.3792 21.1643C23.3525 21.1143 23.3141 21.0716 23.2673 21.0397C23.2563 21.0322 23.2448 21.0255 23.2327 21.0199L22.3796 20.5288L19.4605 18.849C19.4599 18.8492 19.4593 18.8492 19.4587 18.849L19.4028 18.8163H19.4018C19.3572 18.7847 19.3207 18.7429 19.2956 18.6943C19.2704 18.6458 19.2572 18.5919 19.2571 18.5372C19.257 18.4826 19.2699 18.4286 19.2949 18.38C19.3199 18.3313 19.3561 18.2894 19.4006 18.2576C19.4006 18.2576 19.4006 18.2576 19.4024 18.2576L19.4605 18.224C19.4632 18.2221 19.4662 18.2204 19.4692 18.2191L24.7867 15.1599L24.8282 15.1359C24.9272 15.0838 25.0373 15.0565 25.1491 15.0562C25.2609 15.0559 25.3712 15.0826 25.4704 15.1341L25.5159 15.1605L28.6143 16.9427L29.6377 17.5316C29.6475 17.5367 29.6571 17.5423 29.6663 17.5484C29.7658 17.6083 29.8484 17.6926 29.9062 17.7933C29.968 17.8977 30.0003 18.017 29.9998 18.1383L30.0002 18.1367Z" fill="#0057FF"/>
</g>
<defs>
<clipPath id="clip0_313_44">
<rect width="20" height="23.8096" fill="white" transform="translate(10 8)"/>
</clipPath>
</defs>
</svg>
