<svg width="24" height="24" viewBox="0 0 24 24" fill="none" xmlns="http://www.w3.org/2000/svg">
<path d="M19.9805 2.99024C19.9432 2.99141 19.906 2.99467 19.8691 3H15C14.8675 2.99813 14.7359 3.02261 14.613 3.07202C14.49 3.12144 14.3781 3.1948 14.2837 3.28784C14.1893 3.38089 14.1144 3.49176 14.0632 3.61401C14.0121 3.73627 13.9858 3.86748 13.9858 4C13.9858 4.13253 14.0121 4.26373 14.0632 4.38599C14.1144 4.50824 14.1893 4.61912 14.2837 4.71216C14.3781 4.80521 14.49 4.87857 14.613 4.92798C14.7359 4.97739 14.8675 5.00187 15 5H17.5859L8.29297 14.293C8.197 14.3851 8.12037 14.4955 8.06759 14.6176C8.0148 14.7397 7.98692 14.8712 7.98556 15.0042C7.98421 15.1373 8.00942 15.2692 8.0597 15.3924C8.10999 15.5156 8.18435 15.6275 8.27843 15.7216C8.37251 15.8156 8.48442 15.89 8.6076 15.9403C8.73077 15.9906 8.86275 16.0158 8.99579 16.0144C9.12883 16.0131 9.26026 15.9852 9.38239 15.9324C9.50452 15.8796 9.61489 15.803 9.70703 15.707L19 6.41406V9C18.9981 9.13251 19.0226 9.26408 19.072 9.38704C19.1214 9.51001 19.1948 9.62193 19.2878 9.7163C19.3809 9.81067 19.4918 9.88561 19.614 9.93676C19.7363 9.9879 19.8675 10.0142 20 10.0142C20.1325 10.0142 20.2637 9.9879 20.386 9.93676C20.5082 9.88561 20.6191 9.81067 20.7122 9.7163C20.8052 9.62193 20.8786 9.51001 20.928 9.38704C20.9774 9.26408 21.0019 9.13251 21 9V4.12695C21.0199 3.98298 21.0082 3.83639 20.9657 3.6974C20.9232 3.55841 20.8509 3.43036 20.7538 3.32216C20.6568 3.21396 20.5373 3.12821 20.4038 3.07089C20.2702 3.01356 20.1258 2.98604 19.9805 2.99024ZM5 3C3.90694 3 3 3.90694 3 5V19C3 20.0931 3.90694 21 5 21H19C20.0931 21 21 20.0931 21 19V13C21.0019 12.8675 20.9774 12.7359 20.928 12.613C20.8786 12.49 20.8052 12.3781 20.7122 12.2837C20.6191 12.1893 20.5082 12.1144 20.386 12.0632C20.2637 12.0121 20.1325 11.9858 20 11.9858C19.8675 11.9858 19.7363 12.0121 19.614 12.0632C19.4918 12.1144 19.3809 12.1893 19.2878 12.2837C19.1948 12.3781 19.1214 12.49 19.072 12.613C19.0226 12.7359 18.9981 12.8675 19 13V19H5V5H11C11.1325 5.00187 11.2641 4.97739 11.387 4.92798C11.51 4.87857 11.6219 4.80521 11.7163 4.71216C11.8107 4.61912 11.8856 4.50824 11.9368 4.38599C11.9879 4.26373 12.0142 4.13253 12.0142 4C12.0142 3.86748 11.9879 3.73627 11.9368 3.61401C11.8856 3.49176 11.8107 3.38089 11.7163 3.28784C11.6219 3.1948 11.51 3.12144 11.387 3.07202C11.2641 3.02261 11.1325 2.99813 11 3H5Z" fill="#777E91"/>
</svg>
