<svg width="40" height="40" viewBox="0 0 40 40" fill="none" xmlns="http://www.w3.org/2000/svg">
<rect width="40" height="40" rx="20" fill="#23262F"/>
<path d="M30 20C30 25.5225 25.5225 30 20 30C14.4775 30 10 25.5225 10 20C10 14.4775 14.4775 10 20 10C25.5225 10 30 14.4775 30 20Z" fill="url(#paint0_linear_504_165)"/>
<path opacity="0.05" d="M13.0597 19.733C17.1372 17.8855 21.9262 15.881 22.6637 15.591C24.2897 14.9515 24.9987 15.605 24.8877 16.6475C24.7512 17.925 24.1042 21.6425 23.7062 24.306C23.4732 25.8645 22.6292 26.342 21.6767 25.7375C20.9542 25.279 18.4702 23.6525 17.8167 23.0965C17.3712 22.7175 17.0607 22.2925 17.3767 21.8595C17.4692 21.733 17.7057 21.478 17.8372 21.351C18.4967 20.712 18.4077 20.5745 17.6102 21.145C17.5152 21.213 16.9642 21.6125 16.7377 21.7635C16.1827 22.1335 15.6722 22.1535 14.8067 21.8595C14.0987 21.619 13.4187 21.4335 12.9897 21.248C12.3972 20.9915 12.1702 20.136 13.0597 19.733Z" fill="black"/>
<path opacity="0.07" d="M13.4183 19.7955C17.2043 18.103 21.8603 16.1635 22.5413 15.889C24.1733 15.23 24.7738 15.621 24.5983 16.8945C24.4353 18.0735 23.8568 21.7215 23.4513 24.167C23.2123 25.6065 22.5143 25.9235 21.6053 25.3355C21.0358 24.9685 18.7438 23.4585 18.1878 23.019C17.7578 22.6795 17.3123 22.2875 17.8328 21.72C18.0068 21.5305 18.9678 20.603 19.6863 19.913C20.1028 19.5125 19.9543 19.315 19.4518 19.659C18.5303 20.2905 17.0228 21.29 16.7538 21.4715C16.2413 21.8165 15.7598 21.8995 14.9218 21.636C14.2613 21.428 13.6233 21.2265 13.2908 21.097C12.5478 20.809 12.5378 20.189 13.4183 19.7955Z" fill="black"/>
<path d="M13.7764 19.8585C17.2714 18.321 21.7939 16.4465 22.4184 16.187C24.0559 15.508 24.5584 15.638 24.3079 17.142C24.1279 18.223 23.6089 21.8015 23.1949 24.029C22.9494 25.35 22.3984 25.5065 21.5324 24.935C21.1159 24.66 19.0134 23.2695 18.5569 22.943C18.1404 22.6455 17.5659 22.2875 18.2864 21.5825C18.5429 21.3315 20.2234 19.7265 21.5329 18.4775C21.7044 18.3135 21.4889 18.044 21.2909 18.1755C19.5259 19.346 17.0789 20.9705 16.7674 21.182C16.2969 21.5015 15.8449 21.648 15.0339 21.415C14.4209 21.239 13.8224 21.029 13.5894 20.949C12.6919 20.641 12.9049 20.242 13.7764 19.8585Z" fill="white"/>
<defs>
<linearGradient id="paint0_linear_504_165" x1="12.929" y1="12.929" x2="27.071" y2="27.071" gradientUnits="userSpaceOnUse">
<stop stop-color="#33BEF0"/>
<stop offset="1" stop-color="#0A85D9"/>
</linearGradient>
</defs>
</svg>
