<svg width="40" height="40" viewBox="0 0 40 40" fill="none" xmlns="http://www.w3.org/2000/svg">
<rect width="40" height="40" rx="20" fill="#23262F"/>
<path d="M30 13.9047C29.2651 14.2302 28.4748 14.4472 27.641 14.55C28.4886 14.0468 29.141 13.2442 29.4471 12.2957C28.6539 12.7604 27.775 13.1021 26.8402 13.2821C26.0935 12.4909 25.0284 12 23.8487 12C21.5825 12 19.7451 13.8208 19.7451 16.0661C19.7451 16.3841 19.7825 16.6935 19.8522 16.9938C16.4427 16.8228 13.4185 15.2019 11.3953 12.742C11.04 13.3432 10.84 14.0468 10.84 14.7897C10.84 16.2012 11.5626 17.4439 12.6646 18.176C11.9919 18.1556 11.3589 17.9684 10.8045 17.6681C10.8045 17.6804 10.8045 17.6984 10.8045 17.7159C10.8045 19.6883 12.2193 21.331 14.0946 21.7048C13.752 21.7986 13.3896 21.8508 13.0162 21.8508C12.7514 21.8508 12.4931 21.8209 12.243 21.7759C12.7651 23.3878 14.2798 24.5661 16.0746 24.6012C14.6702 25.6899 12.9015 26.3419 10.9784 26.3419C10.6463 26.3419 10.3212 26.3229 10 26.2841C11.818 27.4349 13.9752 28.1092 16.2911 28.1092C23.8373 28.1092 27.966 21.9123 27.966 16.5362C27.966 16.3599 27.9603 16.1846 27.9522 16.0112C28.7577 15.4421 29.4518 14.7248 30 13.9047Z" fill="url(#paint0_linear_313_69)"/>
<defs>
<linearGradient id="paint0_linear_313_69" x1="13.0551" y1="12.6216" x2="27.4855" y2="27.0521" gradientUnits="userSpaceOnUse">
<stop stop-color="#2AA4F4"/>
<stop offset="1" stop-color="#007AD9"/>
</linearGradient>
</defs>
</svg>
