<svg width="40" height="40" viewBox="0 0 40 40" fill="none" xmlns="http://www.w3.org/2000/svg">
<rect width="40" height="40" rx="20" fill="#23262F"/>
<path d="M29.5511 25.419C29.3516 26.4663 28.5037 27.2643 27.4564 27.414C25.8105 27.6633 23.0673 27.9626 19.9751 27.9626C16.9327 27.9626 14.1895 27.6633 12.4938 27.414C11.4464 27.2643 10.5985 26.4663 10.399 25.419C10.1995 24.2718 10 22.5761 10 20.4813C10 18.3865 10.1995 16.6908 10.399 15.5436C10.5985 14.4963 11.4464 13.6983 12.4938 13.5486C14.1397 13.2993 16.8828 13 19.9751 13C23.0673 13 25.7606 13.2993 27.4564 13.5486C28.5037 13.6983 29.3516 14.4963 29.5511 15.5436C29.7506 16.6908 30 18.3865 30 20.4813C29.9501 22.5761 29.7506 24.2718 29.5511 25.419Z" fill="#FF3D00"/>
<path d="M17.98 23.9726V16.99L23.9651 20.4813L17.98 23.9726Z" fill="white"/>
</svg>
