<svg width="60" height="21" viewBox="0 0 60 21" fill="none" xmlns="http://www.w3.org/2000/svg">
<path d="M23.281 13.4121C24.9652 13.4121 26.1517 12.5064 26.1517 11.024C26.1517 9.40553 24.8183 8.98657 23.5655 8.59294C22.3676 8.23088 22.0619 7.97225 22.0619 7.48398C22.0619 7.03139 22.4467 6.69156 23.1021 6.69156C23.9048 6.69156 24.3342 7.11053 24.6166 7.71053L25.9278 6.95174C25.3966 5.84018 24.3998 5.17242 23.1 5.17242C21.7438 5.17242 20.5004 6.0326 20.5004 7.52639C20.5004 9.03208 21.676 9.54363 22.8854 9.89226C24.061 10.2316 24.5923 10.4581 24.5923 11.0467C24.5923 11.4879 24.2643 11.8842 23.326 11.8842C22.3433 11.8842 21.7888 11.4088 21.5064 10.6728L20.1724 11.4538C20.6017 12.6311 21.6647 13.4121 23.281 13.4121Z" fill="white"/>
<path d="M29.8257 7.43585C28.9981 7.43585 28.4017 7.74154 27.9947 8.26344V7.59465H26.5345V15.5172H27.9926V12.586C28.3997 13.1064 28.9986 13.4136 29.8236 13.4136C31.3381 13.4136 32.5816 12.1117 32.5816 10.4255C32.5816 8.7393 31.3402 7.43585 29.8257 7.43585ZM29.5547 12.0202C28.6614 12.0202 27.9947 11.3746 27.9947 10.424C27.9947 9.47327 28.6614 8.82827 29.5547 8.82827C30.4588 8.82827 31.1255 9.47327 31.1255 10.424C31.1255 11.3746 30.4588 12.0202 29.5547 12.0202Z" fill="white"/>
<path d="M36.1894 7.43587C35.4321 7.43587 34.8445 7.7188 34.5052 8.22828V5.33173H33.0471V13.2538H34.5052V10.1979C34.5052 9.21518 35.0364 8.79414 35.7466 8.79414C36.4019 8.79414 36.8654 9.19035 36.8654 9.96V13.2538H38.3276V9.77897C38.3276 8.27587 37.3873 7.43587 36.1894 7.43587Z" fill="white"/>
<path d="M40.2378 11.024H44.4988C44.5357 10.8261 44.5548 10.6253 44.5557 10.424C44.5557 8.76051 43.3686 7.43585 41.6959 7.43585C39.9212 7.43585 38.7119 8.73775 38.7119 10.424C38.7119 12.1102 39.9098 13.4121 41.8086 13.4121C42.8948 13.4121 43.7416 12.9709 44.2728 12.2012L43.0976 11.5221C42.8488 11.85 42.3967 12.0879 41.8314 12.0879C41.0628 12.0879 40.4411 11.7709 40.2378 11.024ZM40.215 9.89223C40.3847 9.16809 40.9159 8.74913 41.6959 8.74913C42.3062 8.74913 42.9166 9.07706 43.0976 9.89223H40.215Z" fill="white"/>
<path d="M46.4664 8.56811V7.59466H45.0083V13.2538H46.4664V10.5486C46.4664 9.35897 47.4274 9.0207 48.1847 9.11121V7.48138C47.4724 7.48138 46.7586 7.79845 46.4664 8.56811Z" fill="white"/>
<path d="M51.2655 13.4121C52.9268 13.4121 54.2608 12.1102 54.2608 10.424C54.2608 8.73775 52.9268 7.43585 51.2655 7.43585C49.6041 7.43585 48.2815 8.73775 48.2815 10.424C48.2815 12.1102 49.6036 13.4121 51.2655 13.4121ZM51.2655 11.986C50.4063 11.986 49.7396 11.341 49.7396 10.424C49.7396 9.50689 50.4063 8.86189 51.2655 8.86189C52.1355 8.86189 52.8027 9.50741 52.8027 10.424C52.8027 11.3405 52.138 11.986 51.2655 11.986Z" fill="white"/>
<path d="M57.864 7.43585C57.1067 7.43585 56.5191 7.71878 56.1793 8.22827V7.59465H54.7212V13.2538H56.1793V10.1979C56.1793 9.21516 56.711 8.79413 57.4207 8.79413C58.0765 8.79413 58.54 9.19034 58.54 9.95999V13.2538H60.0002V9.77896C60.0002 8.27585 59.0619 7.43585 57.864 7.43585Z" fill="white"/>
<path d="M13.2083 0.298449V4.28121C13.2082 4.3845 13.1815 4.48602 13.1308 4.57598C13.08 4.66595 13.007 4.74132 12.9186 4.79483L12.8938 4.80931L11.9628 5.34569L6.54311 8.46259L5.88518 8.8407C5.87405 8.8456 5.86347 8.85167 5.85362 8.8588C5.81266 8.88628 5.77909 8.92342 5.75587 8.96694C5.73266 9.01047 5.72052 9.05904 5.72052 9.10837C5.72052 9.1577 5.73266 9.20627 5.75587 9.24979C5.77909 9.29332 5.81266 9.33046 5.85362 9.35794L5.87845 9.37242L6.6207 9.80277L9.15518 11.2614L9.20018 11.2878C9.23987 11.3152 9.2723 11.3519 9.29471 11.3946C9.31711 11.4374 9.32882 11.4849 9.32882 11.5332C9.32882 11.5815 9.31711 11.629 9.29471 11.6717C9.2723 11.7145 9.23987 11.7512 9.20018 11.7786L9.15621 11.8035L4.52535 14.4714L4.49949 14.4864C4.41183 14.5345 4.31343 14.5596 4.21345 14.5593C4.12395 14.559 4.03563 14.5389 3.95483 14.5004L3.92897 14.4869L3.88966 14.4636L1.20414 12.9197L0.315001 12.4081C0.306725 12.404 0.298449 12.3988 0.289656 12.3936C0.20378 12.3412 0.132595 12.2679 0.0827592 12.1805C0.0286345 12.09 3.59435e-05 11.9865 5.30045e-07 11.881V7.72501C-0.000135183 7.62316 0.0257921 7.52297 0.0753155 7.43397C0.124839 7.34497 0.196311 7.27013 0.282932 7.21656C0.284917 7.21467 0.287186 7.21309 0.289656 7.2119C0.299432 7.20568 0.309629 7.20015 0.320173 7.19535L0.324311 7.19225L1.20362 6.68638L4.17104 4.97949L7.74725 2.92242L12.7397 0.0517246C12.7475 0.0462137 12.7558 0.0413693 12.7645 0.0372419C12.8083 0.012802 12.8576 -1.88408e-05 12.9078 4.45936e-07C12.9472 -6.75377e-05 12.9863 0.00763827 13.0228 0.0226779C13.0593 0.0377176 13.0925 0.0597965 13.1204 0.0876541C13.1484 0.115512 13.1706 0.148602 13.1857 0.185037C13.2009 0.221471 13.2087 0.260536 13.2088 0.300001L13.2083 0.298449Z" fill="#01ABFF"/>
<path d="M17.3794 8.80864V12.9647C17.3793 13.0678 17.3525 13.1692 17.3018 13.259C17.2511 13.3488 17.178 13.424 17.0897 13.4773L17.0644 13.4917L16.1752 14.0038L15.0518 14.6504L13.2094 15.7102L9.63212 17.7673L4.64074 20.638C4.63276 20.6433 4.62447 20.6481 4.61591 20.6524C4.5719 20.6768 4.5224 20.6894 4.47212 20.6892C4.43265 20.6892 4.39356 20.6815 4.35707 20.6665C4.32059 20.6515 4.28742 20.6294 4.25947 20.6015C4.23151 20.5737 4.20932 20.5406 4.19416 20.5041C4.17899 20.4677 4.17115 20.4286 4.17108 20.3892V16.4064C4.17099 16.3032 4.19762 16.2018 4.24838 16.112C4.29914 16.0221 4.3723 15.947 4.46074 15.8938C4.47263 15.8861 4.48556 15.8793 4.49746 15.8731L5.41815 15.343L10.8363 12.2261L11.4854 11.8526L11.5273 11.8288L11.5314 11.8262C11.5712 11.7986 11.6036 11.7618 11.6261 11.7189C11.6485 11.6761 11.6602 11.6284 11.6602 11.58C11.6598 11.5308 11.6475 11.4825 11.6243 11.4391C11.6012 11.3956 11.5679 11.3585 11.5273 11.3307C11.5177 11.3243 11.5077 11.3186 11.4973 11.3136L10.7587 10.8864L8.22419 9.42726L8.17557 9.39882C8.13682 9.37127 8.10522 9.33486 8.08341 9.29261C8.06161 9.25036 8.05023 9.20351 8.05023 9.15597C8.05023 9.10843 8.06161 9.06158 8.08341 9.01933C8.10522 8.97708 8.13682 8.94067 8.17557 8.91313L8.22729 8.88416C8.2297 8.88247 8.23231 8.88108 8.23505 8.88002L12.8551 6.2214L12.8913 6.20071C12.9774 6.15571 13.0731 6.1322 13.1703 6.1322C13.2675 6.1322 13.3632 6.15571 13.4494 6.20071L13.4887 6.22347L16.1814 7.77209L17.0706 8.28416C17.0792 8.28841 17.0875 8.29324 17.0954 8.29864C17.1813 8.35075 17.2525 8.42392 17.3023 8.51123C17.3559 8.60207 17.384 8.70573 17.3835 8.81123L17.3794 8.80864Z" fill="#0057FF"/>
</svg>
